<mxfile host="app.diagrams.net" agent="Mozilla/5.0 (Windows NT 10.0; Win64; x64) AppleWebKit/537.36 (KHTML, like Gecko) Chrome/132.0.0.0 Safari/537.36 OPR/117.0.0.0" version="26.2.6">
  <diagram name="Page-1" id="MxQxYSE169r_K4TvUo48">
    <mxGraphModel dx="728" dy="1122" grid="1" gridSize="10" guides="1" tooltips="1" connect="1" arrows="1" fold="1" page="1" pageScale="1" pageWidth="827" pageHeight="1169" math="0" shadow="0">
      <root>
        <mxCell id="0" />
        <mxCell id="1" parent="0" />
        <mxCell id="yizxMCu-5EARcGTEscV0-3" value="Ouverte" style="rounded=1;whiteSpace=wrap;html=1;" vertex="1" parent="1">
          <mxGeometry x="400" width="80" height="40" as="geometry" />
        </mxCell>
        <mxCell id="yizxMCu-5EARcGTEscV0-4" value="&lt;p class=&quot;&quot; data-end=&quot;1370&quot; data-start=&quot;1340&quot;&gt;&lt;span data-end=&quot;1368&quot; data-start=&quot;1342&quot;&gt;Inconnu (état initial)&lt;/span&gt;&lt;/p&gt;" style="rounded=1;whiteSpace=wrap;html=1;fontStyle=0" vertex="1" parent="1">
          <mxGeometry x="40" y="320" width="80" height="40" as="geometry" />
        </mxCell>
        <mxCell id="yizxMCu-5EARcGTEscV0-6" value="Fermée" style="rounded=1;whiteSpace=wrap;html=1;" vertex="1" parent="1">
          <mxGeometry x="160" y="160" width="80" height="40" as="geometry" />
        </mxCell>
        <mxCell id="yizxMCu-5EARcGTEscV0-7" value="En Fermeture" style="rounded=1;whiteSpace=wrap;html=1;" vertex="1" parent="1">
          <mxGeometry x="290" y="430" width="80" height="40" as="geometry" />
        </mxCell>
        <mxCell id="yizxMCu-5EARcGTEscV0-9" value="Erreur" style="rounded=1;whiteSpace=wrap;html=1;" vertex="1" parent="1">
          <mxGeometry x="430" y="370" width="80" height="40" as="geometry" />
        </mxCell>
        <mxCell id="yizxMCu-5EARcGTEscV0-10" value="En Ouverture" style="rounded=1;whiteSpace=wrap;html=1;" vertex="1" parent="1">
          <mxGeometry x="280" y="80" width="80" height="40" as="geometry" />
        </mxCell>
        <mxCell id="yizxMCu-5EARcGTEscV0-12" value="Verrouillée" style="rounded=1;whiteSpace=wrap;html=1;" vertex="1" parent="1">
          <mxGeometry x="600" y="400" width="80" height="40" as="geometry" />
        </mxCell>
        <mxCell id="yizxMCu-5EARcGTEscV0-27" value="Déverrouillée" style="rounded=1;whiteSpace=wrap;html=1;" vertex="1" parent="1">
          <mxGeometry x="570" y="530" width="80" height="40" as="geometry" />
        </mxCell>
      </root>
    </mxGraphModel>
  </diagram>
</mxfile>
